<?xml version="1.0" encoding="UTF-8"?><svg id="Layer_1" xmlns="http://www.w3.org/2000/svg" viewBox="0 0 435.56 96.41"><defs><style>.cls-1,.cls-2{fill:#4e4e4e;}.cls-1,.cls-3{font-family:Kanit-Regular, Kanit;font-size:137.78px;}.cls-4,.cls-3{fill:#e67425;}.cls-5{fill:#e57425;}.cls-6{fill:#676767;}</style></defs><text class="cls-3" transform="translate(6.14 92.95)"><tspan x="0" y="0">te</tspan></text><g><path class="cls-5" d="M141.06,33.84c1.69,11.79,3.27,22.87,4.96,34.67-5.06-3.71-9.55-7.02-14.07-10.31-.74-.54-.94-1.14-.86-2.05,.74-8.26,3.84-15.47,9.96-22.31Z"/><path class="cls-2" d="M201.35,43.6c-11.12-2.78-21.56-5.39-32.69-8.16,5.16-3.22,9.82-6.09,14.44-9.02,1.16-.74,1.9-.08,2.81,.43,6.7,3.79,11.62,9.23,15.44,16.75Z"/><path class="cls-5" d="M133.53,72.53c11.02,3.97,21.15,7.61,32.07,11.55-5.29,2.55-9.86,4.76-14.44,6.96-.62,.3-1.26,.56-1.96,.13-6.96-4.3-12.3-9.95-15.68-18.64Z"/><path class="cls-6" d="M164.03,96.23c8.45-7.65,16.16-14.62,23.96-21.69,0,5.38,.02,10.54-.04,15.71,0,.33-.46,.76-.81,.97-6.87,4.09-14.25,5.79-23.11,5.01Z"/><path class="cls-4" d="M190.65,48.96c5.19,3.03,9.62,5.61,14.05,8.18,.85,.49,.83,1.27,.81,2.09-.19,7.62-2.22,14.66-6.99,21.62-2.64-10.7-5.15-20.85-7.87-31.89Z"/><path class="cls-2" d="M170.76,22.16c-6.87,7.65-13.2,14.7-19.53,21.75-.22-.09-.43-.18-.65-.27,.81-5.83,1.61-11.66,2.42-17.49,.1-.74,.56-1.14,1.27-1.45,5.01-2.16,10.19-3.11,16.48-2.55Z"/></g><text class="cls-1" transform="translate(205.52 92.86)"><tspan x="0" y="0">site</tspan></text></svg>