<svg width="75" height="75" viewBox="0 0 75 75" fill="none" xmlns="http://www.w3.org/2000/svg">
<path d="M9.98645 11.8477C11.6765 23.6377 13.2565 34.7177 14.9465 46.5177C9.88646 42.8077 5.39645 39.4977 0.876452 36.2077C0.136452 35.6677 -0.0635485 35.0677 0.0164515 34.1577C0.756452 25.8977 3.85646 18.6877 9.97646 11.8477H9.98645Z" fill="#E57425"/>
<path d="M70.2765 21.6077C59.1565 18.8277 48.7165 16.2177 37.5865 13.4477C42.7465 10.2277 47.4065 7.35774 52.0265 4.42774C53.1865 3.68774 53.9265 4.34774 54.8365 4.85774C61.5365 8.64774 66.4565 14.0877 70.2765 21.6077Z" fill="#4E4E4E"/>
<path d="M2.45645 50.5377C13.4765 54.5077 23.6065 58.1477 34.5265 62.0877C29.2365 64.6377 24.6665 66.8477 20.0865 69.0477C19.4665 69.3477 18.8264 69.6077 18.1264 69.1777C11.1664 64.8777 5.82646 59.2277 2.44646 50.5377H2.45645Z" fill="#E57425"/>
<path d="M32.9565 74.2377C41.4065 66.5877 49.1165 59.6177 56.9165 52.5477C56.9165 57.9277 56.9364 63.0877 56.8764 68.2577C56.8764 68.5877 56.4165 69.0177 56.0665 69.2277C49.1965 73.3177 41.8165 75.0177 32.9565 74.2377Z" fill="#676767"/>
<path d="M59.5764 26.9677C64.7664 29.9977 69.1964 32.5777 73.6264 35.1477C74.4764 35.6377 74.4564 36.4177 74.4364 37.2377C74.2464 44.8577 72.2165 51.8977 67.4465 58.8577C64.8065 48.1577 62.2964 38.0077 59.5764 26.9677Z" fill="#E67425"/>
<path d="M39.6864 0.167729C32.8164 7.81773 26.4864 14.8677 20.1564 21.9177C19.9364 21.8277 19.7265 21.7377 19.5065 21.6477C20.3165 15.8177 21.1165 9.98773 21.9265 4.15773C22.0265 3.41773 22.4865 3.01773 23.1965 2.70773C28.2065 0.54773 33.3865 -0.402271 39.6765 0.157729L39.6864 0.167729Z" fill="#4E4E4E"/>
</svg>
